<mxfile host="app.diagrams.net" modified="2023-12-01T02:42:04.605Z" agent="Mozilla/5.0 (Windows NT 10.0; Win64; x64) AppleWebKit/537.36 (KHTML, like Gecko) Chrome/119.0.0.0 Safari/537.36 Edg/119.0.0.0" etag="LgoQg02vOpTdVElQgy2R" version="22.1.5" type="device">
  <diagram name="第 1 页" id="EezNBDMpTELZ8zyc_UBX">
    <mxGraphModel dx="1253" dy="831" grid="1" gridSize="10" guides="1" tooltips="1" connect="1" arrows="1" fold="1" page="1" pageScale="1" pageWidth="3300" pageHeight="4681" math="0" shadow="0">
      <root>
        <mxCell id="0" />
        <mxCell id="1" parent="0" />
        <mxCell id="RUxIcgN4KLEnoHb8jevI-15" style="edgeStyle=orthogonalEdgeStyle;rounded=0;orthogonalLoop=1;jettySize=auto;html=1;entryX=0.5;entryY=0;entryDx=0;entryDy=0;" edge="1" parent="1" source="RUxIcgN4KLEnoHb8jevI-1" target="RUxIcgN4KLEnoHb8jevI-2">
          <mxGeometry relative="1" as="geometry" />
        </mxCell>
        <mxCell id="RUxIcgN4KLEnoHb8jevI-1" value="R0&amp;lt;-0&lt;br&gt;R1&amp;lt;-0&lt;br&gt;R2&amp;lt;-0&lt;br&gt;R3&amp;lt;-0&lt;br&gt;R4&amp;lt;-0" style="rounded=0;whiteSpace=wrap;html=1;" vertex="1" parent="1">
          <mxGeometry x="880" y="350" width="120" height="90" as="geometry" />
        </mxCell>
        <mxCell id="RUxIcgN4KLEnoHb8jevI-16" style="edgeStyle=orthogonalEdgeStyle;rounded=0;orthogonalLoop=1;jettySize=auto;html=1;" edge="1" parent="1" source="RUxIcgN4KLEnoHb8jevI-2" target="RUxIcgN4KLEnoHb8jevI-3">
          <mxGeometry relative="1" as="geometry" />
        </mxCell>
        <mxCell id="RUxIcgN4KLEnoHb8jevI-2" value="R0&amp;lt;-M[x3100]&lt;br&gt;R1&amp;lt;-M[x3200]" style="rounded=0;whiteSpace=wrap;html=1;" vertex="1" parent="1">
          <mxGeometry x="880" y="460" width="120" height="60" as="geometry" />
        </mxCell>
        <mxCell id="RUxIcgN4KLEnoHb8jevI-17" style="edgeStyle=orthogonalEdgeStyle;rounded=0;orthogonalLoop=1;jettySize=auto;html=1;entryX=0.5;entryY=0;entryDx=0;entryDy=0;" edge="1" parent="1" source="RUxIcgN4KLEnoHb8jevI-3" target="RUxIcgN4KLEnoHb8jevI-4">
          <mxGeometry relative="1" as="geometry" />
        </mxCell>
        <mxCell id="RUxIcgN4KLEnoHb8jevI-3" value="LOOP&lt;br&gt;R3&amp;lt;-M[R0]" style="rounded=0;whiteSpace=wrap;html=1;" vertex="1" parent="1">
          <mxGeometry x="880" y="540" width="120" height="60" as="geometry" />
        </mxCell>
        <mxCell id="RUxIcgN4KLEnoHb8jevI-18" style="edgeStyle=orthogonalEdgeStyle;rounded=0;orthogonalLoop=1;jettySize=auto;html=1;entryX=0;entryY=0.5;entryDx=0;entryDy=0;" edge="1" parent="1" source="RUxIcgN4KLEnoHb8jevI-4" target="RUxIcgN4KLEnoHb8jevI-8">
          <mxGeometry relative="1" as="geometry">
            <Array as="points">
              <mxPoint x="690" y="660" />
              <mxPoint x="690" y="1100" />
              <mxPoint x="880" y="1100" />
            </Array>
          </mxGeometry>
        </mxCell>
        <mxCell id="RUxIcgN4KLEnoHb8jevI-19" value="Yes" style="edgeLabel;html=1;align=center;verticalAlign=middle;resizable=0;points=[];" vertex="1" connectable="0" parent="RUxIcgN4KLEnoHb8jevI-18">
          <mxGeometry x="-0.8846" y="9" relative="1" as="geometry">
            <mxPoint y="1" as="offset" />
          </mxGeometry>
        </mxCell>
        <mxCell id="RUxIcgN4KLEnoHb8jevI-20" style="edgeStyle=orthogonalEdgeStyle;rounded=0;orthogonalLoop=1;jettySize=auto;html=1;entryX=0.5;entryY=0;entryDx=0;entryDy=0;" edge="1" parent="1" source="RUxIcgN4KLEnoHb8jevI-4" target="RUxIcgN4KLEnoHb8jevI-5">
          <mxGeometry relative="1" as="geometry" />
        </mxCell>
        <mxCell id="RUxIcgN4KLEnoHb8jevI-21" value="NO" style="edgeLabel;html=1;align=center;verticalAlign=middle;resizable=0;points=[];" vertex="1" connectable="0" parent="RUxIcgN4KLEnoHb8jevI-20">
          <mxGeometry x="-0.4981" y="9" relative="1" as="geometry">
            <mxPoint as="offset" />
          </mxGeometry>
        </mxCell>
        <mxCell id="RUxIcgN4KLEnoHb8jevI-4" value="R3?=0" style="rhombus;whiteSpace=wrap;html=1;" vertex="1" parent="1">
          <mxGeometry x="880" y="620" width="120" height="80" as="geometry" />
        </mxCell>
        <mxCell id="RUxIcgN4KLEnoHb8jevI-22" style="edgeStyle=orthogonalEdgeStyle;rounded=0;orthogonalLoop=1;jettySize=auto;html=1;" edge="1" parent="1" source="RUxIcgN4KLEnoHb8jevI-5" target="RUxIcgN4KLEnoHb8jevI-6">
          <mxGeometry relative="1" as="geometry" />
        </mxCell>
        <mxCell id="RUxIcgN4KLEnoHb8jevI-5" value="R4&amp;lt;-M[R1]" style="rounded=0;whiteSpace=wrap;html=1;" vertex="1" parent="1">
          <mxGeometry x="880" y="720" width="120" height="60" as="geometry" />
        </mxCell>
        <mxCell id="RUxIcgN4KLEnoHb8jevI-6" value="Continue&lt;br&gt;R2&amp;lt;-R3-R4" style="rounded=0;whiteSpace=wrap;html=1;" vertex="1" parent="1">
          <mxGeometry x="880" y="810" width="120" height="60" as="geometry" />
        </mxCell>
        <mxCell id="RUxIcgN4KLEnoHb8jevI-24" style="edgeStyle=orthogonalEdgeStyle;rounded=0;orthogonalLoop=1;jettySize=auto;html=1;entryX=0;entryY=0.5;entryDx=0;entryDy=0;" edge="1" parent="1" source="RUxIcgN4KLEnoHb8jevI-7" target="RUxIcgN4KLEnoHb8jevI-12">
          <mxGeometry relative="1" as="geometry" />
        </mxCell>
        <mxCell id="RUxIcgN4KLEnoHb8jevI-25" value="Yes" style="edgeLabel;html=1;align=center;verticalAlign=middle;resizable=0;points=[];" vertex="1" connectable="0" parent="RUxIcgN4KLEnoHb8jevI-24">
          <mxGeometry x="-0.0937" y="7" relative="1" as="geometry">
            <mxPoint as="offset" />
          </mxGeometry>
        </mxCell>
        <mxCell id="RUxIcgN4KLEnoHb8jevI-26" style="edgeStyle=orthogonalEdgeStyle;rounded=0;orthogonalLoop=1;jettySize=auto;html=1;entryX=1;entryY=0.5;entryDx=0;entryDy=0;" edge="1" parent="1" source="RUxIcgN4KLEnoHb8jevI-7" target="RUxIcgN4KLEnoHb8jevI-13">
          <mxGeometry relative="1" as="geometry">
            <mxPoint x="1150" y="1200.0000762939455" as="targetPoint" />
            <Array as="points">
              <mxPoint x="940" y="1010" />
              <mxPoint x="1160" y="1010" />
              <mxPoint x="1160" y="1400" />
            </Array>
          </mxGeometry>
        </mxCell>
        <mxCell id="RUxIcgN4KLEnoHb8jevI-27" value="NO" style="edgeLabel;html=1;align=center;verticalAlign=middle;resizable=0;points=[];" vertex="1" connectable="0" parent="RUxIcgN4KLEnoHb8jevI-26">
          <mxGeometry x="-0.7431" y="1" relative="1" as="geometry">
            <mxPoint as="offset" />
          </mxGeometry>
        </mxCell>
        <mxCell id="RUxIcgN4KLEnoHb8jevI-7" value="R2?=0" style="rhombus;whiteSpace=wrap;html=1;" vertex="1" parent="1">
          <mxGeometry x="880" y="900" width="120" height="80" as="geometry" />
        </mxCell>
        <mxCell id="RUxIcgN4KLEnoHb8jevI-29" style="edgeStyle=orthogonalEdgeStyle;rounded=0;orthogonalLoop=1;jettySize=auto;html=1;" edge="1" parent="1" source="RUxIcgN4KLEnoHb8jevI-8" target="RUxIcgN4KLEnoHb8jevI-9">
          <mxGeometry relative="1" as="geometry" />
        </mxCell>
        <mxCell id="RUxIcgN4KLEnoHb8jevI-8" value="Dudge&lt;br&gt;R4&amp;lt;-M[R1]" style="rounded=0;whiteSpace=wrap;html=1;" vertex="1" parent="1">
          <mxGeometry x="880" y="1060" width="120" height="60" as="geometry" />
        </mxCell>
        <mxCell id="RUxIcgN4KLEnoHb8jevI-30" style="edgeStyle=orthogonalEdgeStyle;rounded=0;orthogonalLoop=1;jettySize=auto;html=1;entryX=0;entryY=0.5;entryDx=0;entryDy=0;" edge="1" parent="1" source="RUxIcgN4KLEnoHb8jevI-9" target="RUxIcgN4KLEnoHb8jevI-6">
          <mxGeometry relative="1" as="geometry">
            <Array as="points">
              <mxPoint x="1050" y="1180" />
              <mxPoint x="1050" y="1030" />
              <mxPoint x="810" y="1030" />
              <mxPoint x="810" y="840" />
            </Array>
          </mxGeometry>
        </mxCell>
        <mxCell id="RUxIcgN4KLEnoHb8jevI-31" value="NO" style="edgeLabel;html=1;align=center;verticalAlign=middle;resizable=0;points=[];" vertex="1" connectable="0" parent="RUxIcgN4KLEnoHb8jevI-30">
          <mxGeometry x="-0.8824" y="-1" relative="1" as="geometry">
            <mxPoint as="offset" />
          </mxGeometry>
        </mxCell>
        <mxCell id="RUxIcgN4KLEnoHb8jevI-32" style="edgeStyle=orthogonalEdgeStyle;rounded=0;orthogonalLoop=1;jettySize=auto;html=1;entryX=0.5;entryY=0;entryDx=0;entryDy=0;" edge="1" parent="1" source="RUxIcgN4KLEnoHb8jevI-9" target="RUxIcgN4KLEnoHb8jevI-11">
          <mxGeometry relative="1" as="geometry" />
        </mxCell>
        <mxCell id="RUxIcgN4KLEnoHb8jevI-33" value="Yes" style="edgeLabel;html=1;align=center;verticalAlign=middle;resizable=0;points=[];" vertex="1" connectable="0" parent="RUxIcgN4KLEnoHb8jevI-32">
          <mxGeometry x="0.0219" y="-4" relative="1" as="geometry">
            <mxPoint as="offset" />
          </mxGeometry>
        </mxCell>
        <mxCell id="RUxIcgN4KLEnoHb8jevI-9" value="R4?=0" style="rhombus;whiteSpace=wrap;html=1;" vertex="1" parent="1">
          <mxGeometry x="880" y="1140" width="120" height="80" as="geometry" />
        </mxCell>
        <mxCell id="RUxIcgN4KLEnoHb8jevI-34" style="edgeStyle=orthogonalEdgeStyle;rounded=0;orthogonalLoop=1;jettySize=auto;html=1;entryX=0.5;entryY=0;entryDx=0;entryDy=0;" edge="1" parent="1" source="RUxIcgN4KLEnoHb8jevI-11" target="RUxIcgN4KLEnoHb8jevI-13">
          <mxGeometry relative="1" as="geometry" />
        </mxCell>
        <mxCell id="RUxIcgN4KLEnoHb8jevI-11" value="R2&amp;lt;-0" style="rounded=0;whiteSpace=wrap;html=1;" vertex="1" parent="1">
          <mxGeometry x="880" y="1260" width="120" height="60" as="geometry" />
        </mxCell>
        <mxCell id="RUxIcgN4KLEnoHb8jevI-28" style="edgeStyle=orthogonalEdgeStyle;rounded=0;orthogonalLoop=1;jettySize=auto;html=1;entryX=1;entryY=0.5;entryDx=0;entryDy=0;" edge="1" parent="1" source="RUxIcgN4KLEnoHb8jevI-12" target="RUxIcgN4KLEnoHb8jevI-4">
          <mxGeometry relative="1" as="geometry">
            <Array as="points">
              <mxPoint x="1140" y="660" />
            </Array>
          </mxGeometry>
        </mxCell>
        <mxCell id="RUxIcgN4KLEnoHb8jevI-12" value="NEXT&lt;br&gt;R0&amp;lt;-R0+1&lt;br&gt;R1&amp;lt;-R1+1" style="rounded=0;whiteSpace=wrap;html=1;" vertex="1" parent="1">
          <mxGeometry x="1080" y="910" width="120" height="60" as="geometry" />
        </mxCell>
        <mxCell id="RUxIcgN4KLEnoHb8jevI-35" style="edgeStyle=orthogonalEdgeStyle;rounded=0;orthogonalLoop=1;jettySize=auto;html=1;" edge="1" parent="1" source="RUxIcgN4KLEnoHb8jevI-13" target="RUxIcgN4KLEnoHb8jevI-14">
          <mxGeometry relative="1" as="geometry" />
        </mxCell>
        <mxCell id="RUxIcgN4KLEnoHb8jevI-13" value="DONE&lt;br&gt;M[x3300]&amp;lt;-R2" style="rounded=0;whiteSpace=wrap;html=1;" vertex="1" parent="1">
          <mxGeometry x="880" y="1370" width="120" height="60" as="geometry" />
        </mxCell>
        <mxCell id="RUxIcgN4KLEnoHb8jevI-14" value="HALT" style="ellipse;whiteSpace=wrap;html=1;" vertex="1" parent="1">
          <mxGeometry x="880" y="1460" width="120" height="80" as="geometry" />
        </mxCell>
        <mxCell id="RUxIcgN4KLEnoHb8jevI-23" style="edgeStyle=orthogonalEdgeStyle;rounded=0;orthogonalLoop=1;jettySize=auto;html=1;entryX=0.487;entryY=0.07;entryDx=0;entryDy=0;entryPerimeter=0;" edge="1" parent="1" source="RUxIcgN4KLEnoHb8jevI-6" target="RUxIcgN4KLEnoHb8jevI-7">
          <mxGeometry relative="1" as="geometry" />
        </mxCell>
      </root>
    </mxGraphModel>
  </diagram>
</mxfile>
